<?xml version="1.0" standalone="no"?><!DOCTYPE svg PUBLIC "-//W3C//DTD SVG 1.1//EN" "http://www.w3.org/Graphics/SVG/1.1/DTD/svg11.dtd"><svg t="1694267605291" class="icon" viewBox="0 0 1024 1024" version="1.1" xmlns="http://www.w3.org/2000/svg" p-id="6987" xmlns:xlink="http://www.w3.org/1999/xlink" width="200" height="200"><path d="M841.504 864.992l0.992-2.016a23.872 23.872 0 0 0 2.336-4.992v-0.16c3.168-8.32 3.84-17.152 2.336-26.016v0.32a75.776 75.776 0 0 0-10.016-26.496l0.32 0.32-227.008-399.168-34.656-60.512-260.992 459.68c-4.512 8-7.328 16.672-8.832 25.664v0.512c-1.824 10.336-0.672 20.832 3.488 30.496l-0.16-0.32c0.512 1.504 1.344 2.848 2.176 4.32l-0.16-0.16c6.848 11.68 21.344 25.664 53.344 25.664h422.336c6.656 0 39.488-1.344 54.656-27.168z m-265.664-397.504l207.328 364.672H368.672z m437.312 338.528L713.824 278.688c-3.168-5.664-20.32-33.664-50.496-33.664-13.504 0-32.832 5.824-48.672 33.504L576 346.368l34.336 60.672 53.344-94.496 296.16 519.84h-112.672c1.504 8.672 0.672 17.504-2.336 25.824v-0.32c-0.672 1.824-1.344 3.68-2.336 5.344v-0.16l-0.992 2.016c-15.168 25.824-47.84 27.168-54.176 27.168h176.16c6.496 0 39.008-1.344 54.176-27.168 6.848-11.84 11.488-31.488-4.512-59.008zM311.68 866.496l-2.016-4v-0.16a53.376 53.376 0 0 1-3.68-30.496v0.32H63.968l359.68-632.832 117.984 207.488 34.336-60.512-103.008-181.344c-2.848-5.152-20.16-33.152-50.176-33.152-13.504 0-32.992 5.824-48.672 33.664L9.792 805.984c-3.168 5.504-18.176 34.496-3.168 60.32 6.848 11.84 21.344 25.664 53.344 25.664h304.992c-31.68 0-46.496-13.664-53.344-25.664z" p-id="6988" fill="#37e39b"></path></svg>