<?xml version="1.0" standalone="no"?><!DOCTYPE svg PUBLIC "-//W3C//DTD SVG 1.1//EN" "http://www.w3.org/Graphics/SVG/1.1/DTD/svg11.dtd"><svg t="1694267502538" class="icon" viewBox="0 0 1024 1024" version="1.1" xmlns="http://www.w3.org/2000/svg" p-id="4227" xmlns:xlink="http://www.w3.org/1999/xlink" width="200" height="200"><path d="M612.896 75.2v4.8a102.4 102.4 0 1 1-204.8 0v-4.8H64v893.408h893.408V75.2z" fill="#654FF0" p-id="4228"></path><path d="M271.52 556.8h59.2l40.48 215.136h0.736L420.48 556.8h55.392l43.872 217.92h0.864l46.08-217.92h58.08l-75.456 316.32h-58.784l-43.52-215.296h-1.152l-46.592 215.296h-59.84z m419.968 0h93.344l92.8 316.32h-61.152l-20.16-70.4h-106.336l-15.552 70.4h-59.488z m35.52 77.984l-25.824 116.064h80.384l-29.568-116.224z" fill="#FFFFFF" p-id="4229"></path></svg>