<?xml version="1.0" standalone="no"?><!DOCTYPE svg PUBLIC "-//W3C//DTD SVG 1.1//EN" "http://www.w3.org/Graphics/SVG/1.1/DTD/svg11.dtd"><svg t="1694266652243" class="icon" viewBox="0 0 1050 1024" version="1.1" xmlns="http://www.w3.org/2000/svg" p-id="1243" xmlns:xlink="http://www.w3.org/1999/xlink" width="205.078125" height="200"><path d="M0 0m185.982906 0l678.290598 0q185.982906 0 185.982906 185.982906l0 652.034188q0 185.982906-185.982906 185.982906l-678.290598 0q-185.982906 0-185.982906-185.982906l0-652.034188q0-185.982906 185.982906-185.982906Z" fill="#330000" p-id="1244"></path><path d="M508.936752 614.52253H346.190769l-33.118085 102.863863a8.288274 8.288274 0 0 1-8.454564 6.345299H222.18612q-7.04547 0-4.931829-7.754393l140.909401-405.819077q2.118017-6.340923 4.231658-14.441025a150.878085 150.878085 0 0 0 2.813812-28.531966 4.358564 4.358564 0 0 1 4.936206-4.936205h112.018598q4.923077 0 5.636376 3.522735l159.936547 450.910085q2.109265 7.054222-4.231658 7.04547h-91.591111a6.51159 6.51159 0 0 1-7.04547-4.931829z m-137.386667-88.772923h111.318428q-4.227282-14.082188-9.863658-31.704616-5.645128-17.600547-11.972923-37.691076l-12.686223-40.15918q-6.340923-20.081778-11.622837-38.750085-5.286291-18.659556-9.509197-34.172718h-0.708923a569.357128 569.357128 0 0 1-14.791111 56.36376q-9.876786 31.704615-20.086154 64.818325-10.21812 33.126838-20.077402 61.29559zM742.837607 336.931009a51.103726 51.103726 0 0 1-38.750086-15.500035 55.737983 55.737983 0 0 1-14.791111-40.159179 51.694496 51.694496 0 0 1 15.85012-39.100171 54.442667 54.442667 0 0 1 39.100171-15.149949q25.368068 0 39.809094 15.149949a54.39453 54.39453 0 0 1 14.441026 39.100171 55.024684 55.024684 0 0 1-15.145573 40.159179 54.061949 54.061949 0 0 1-40.513641 15.500035z m-48.613744 379.755213V379.904c0-4.227282 1.872957-6.340923 5.636376-6.340923h86.659282q5.632 0 5.640753 6.345299v336.769094q0 7.054222-5.640753 7.04547H700.564786q-6.336547 0-6.340923-7.04547z" fill="#FF9A00" p-id="1245"></path></svg>